# xmcd
#
# Track frame offsets: 
#        182
#        25145
#        41012
#        62005
#        79917
#        97430
#        115395
#        129762
#        151167
#        169960
#        195020
#        204797
#        237480
#
# Disc length: 3396 seconds
#
# Revision: 0
# Processed by: cddbd v1.5.2PL0 Copyright (c) Steve Scherf et al.
# Submitted via: ExactAudioCopy v0.99pb5
#
DISCID=a50d420d
DTITLE=Unlimited Blues Time - Back 2 Life (The very best of UB Time)
DYEAR=1995
DGENRE=Blues
TTITLE0=You gonna get burned
TTITLE1=Blues Time
TTITLE2=My babe
TTITLE3=Let's go get stoned
TTITLE4=Six feet of ground
TTITLE5=Shot from the saddle
TTITLE6=634-5789
TTITLE7=Down in that bedroom
TTITLE8=Don't let it fall
TTITLE9=(If you tell me) You don't love me
TTITLE10=I wanna rock
TTITLE11=Ain't no sunshine
TTITLE12=Mercury blues
EXTD=
EXTT0=
EXTT1=
EXTT2=
EXTT3=
EXTT4=
EXTT5=
EXTT6=
EXTT7=
EXTT8=
EXTT9=
EXTT10=
EXTT11=
EXTT12=
PLAYORDER=
